<?xml version="1.0" encoding="UTF-8"?>
<svg version="1.1" xmlns="http://www.w3.org/2000/svg" width="669" height="669">
<path d="M0 0 C220.77 0 441.54 0 669 0 C669 220.77 669 441.54 669 669 C448.23 669 227.46 669 0 669 C0 448.23 0 227.46 0 0 Z " fill="#FEFEFE" transform="translate(0,0)"/>
<path d="M0 0 C2.97556083 1.38976292 5.51113476 3.01044833 8.1328125 4.984375 C9.32825684 5.88192505 9.32825684 5.88192505 10.54785156 6.79760742 C11.39831055 7.44189697 12.24876953 8.08618652 13.125 8.75 C14.4548291 9.75220581 14.4548291 9.75220581 15.81152344 10.7746582 C22.41890376 15.76782893 28.96532007 20.83638501 35.48876953 25.93847656 C40.92692176 30.18587132 46.42868376 34.33928941 51.96191406 38.46166992 C57.80107273 42.82372061 63.54657994 47.3009106 69.2890625 51.7890625 C74.15193845 55.58243996 79.05431553 59.31536655 84 63 C90.49948228 67.84224377 96.90328261 72.79812873 103.2890625 77.7890625 C108.79205091 82.08177168 114.3555058 86.28486094 119.95214844 90.4543457 C125.8875361 94.88823036 131.72922197 99.43799299 137.56811523 103.99780273 C142.63553171 107.95094692 147.74489064 111.83546603 152.8984375 115.67578125 C158.8839706 120.16116185 164.80924269 124.72589894 170.74609375 129.27539062 C173.04693492 131.03591294 175.35112402 132.79196753 177.65625 134.546875 C178.41526611 135.1253418 179.17428223 135.70380859 179.95629883 136.29980469 C181.40067388 137.40043144 182.84577676 138.50010398 184.29174805 139.59863281 C188.27916887 142.63991072 192.17136058 145.76084006 196 149 C194.44173795 152.43781525 192.41058599 155.25278467 190.125 158.25 C189.31102809 159.32278784 188.49723537 160.39571164 187.68359375 161.46875 C187.24901855 162.03980469 186.81444336 162.61085938 186.36669922 163.19921875 C183.95891098 166.37175288 181.57478998 169.56203058 179.1875 172.75 C176.13824829 176.81922568 173.08700235 180.88684739 170.0234375 184.9453125 C162.54339498 194.86519722 155.24951207 204.91080733 148 215 C141.31965874 224.28656399 134.61108689 233.54952817 127.8125 242.75 C122.99605784 249.26868079 118.23977065 255.8244828 113.54296875 262.4296875 C105.55366208 273.66217807 97.42989508 284.79537788 89.24023438 295.88232422 C81.3933406 306.51578177 73.6737763 317.24111608 66 328 C57.69212155 339.64791576 49.31488291 351.24317206 40.8125 362.75 C35.99607657 369.26869503 31.23977094 375.8244824 26.54296875 382.4296875 C19.12614541 392.85730051 11.60249148 403.20713634 4 413.5 C-0.70938937 419.87999643 -5.40440904 426.26992348 -10.0625 432.6875 C-10.84850586 433.76451172 -10.84850586 433.76451172 -11.65039062 434.86328125 C-14.97473233 439.45629152 -18.05768867 444.15350594 -21 449 C-24.31520304 448.38413407 -26.37455248 447.21394178 -29.0546875 445.19140625 C-29.8269165 444.61447021 -30.59914551 444.03753418 -31.39477539 443.44311523 C-32.21324951 442.82251221 -33.03172363 442.20190918 -33.875 441.5625 C-35.59966104 440.27263569 -37.32492513 438.98357734 -39.05078125 437.6953125 C-40.32042725 436.74446777 -40.32042725 436.74446777 -41.61572266 435.77441406 C-44.73509088 433.45293462 -47.89030051 431.18598667 -51.0625 428.9375 C-52.18502153 428.13949969 -53.30741515 427.34131945 -54.4296875 426.54296875 C-55.00170898 426.1361084 -55.57373047 425.72924805 -56.16308594 425.31005859 C-67.65934248 417.11110689 -79.05681712 408.77816185 -90.41015625 400.3828125 C-93.42757 398.15341016 -96.45580756 395.940291 -99.49609375 393.7421875 C-100.19452393 393.23574707 -100.8929541 392.72930664 -101.61254883 392.20751953 C-102.92112642 391.25978106 -104.23204377 390.31526191 -105.5456543 389.37451172 C-109.88846497 386.22307005 -109.88846497 386.22307005 -111 384 C-108.62247893 377.70317148 -104.11310428 372.3809783 -100 367.14013672 C-96.95976785 363.2653964 -94.03386608 359.33167967 -91.1875 355.3125 C-90.78096191 354.73894775 -90.37442383 354.16539551 -89.95556641 353.57446289 C-89.09657351 352.36237993 -88.2376901 351.15021937 -87.37890625 349.93798828 C-84.83422434 346.3615568 -82.25974716 342.80663078 -79.6875 339.25 C-78.57551738 337.71224208 -77.46353824 336.17448164 -76.3515625 334.63671875 C-75.79629883 333.8689209 -75.24103516 333.10112305 -74.66894531 332.31005859 C-73.03481701 330.04819171 -71.4036287 327.78423692 -69.7734375 325.51953125 C-63.64502803 317.01007941 -57.46380502 308.54260315 -51.23291016 300.10791016 C-45.63567826 292.5233116 -40.11591373 284.8841167 -34.60888672 277.23388672 C-31.90987872 273.48640216 -29.20461116 269.74344155 -26.5 266 C-25.41663696 264.50002146 -24.33330362 263.00002146 -23.25 261.5 C-21.08333333 258.5 -18.91666667 255.5 -16.75 252.5 C-16.21383057 251.75758057 -15.67766113 251.01516113 -15.12524414 250.25024414 C-14.04121584 248.7493445 -12.95706858 247.24853078 -11.87280273 245.74780273 C-9.17412345 242.01226033 -6.47748688 238.27527746 -3.78515625 234.53515625 C1.82903178 226.74084153 7.47885383 218.975464 13.1875 211.25 C17.58670603 205.29601594 21.94902071 199.3202013 26.23632812 193.28515625 C29.69270994 188.42019985 33.18796935 183.58398783 36.6875 178.75 C41.18185352 172.5385629 45.64154066 166.30787933 50 160 C45.54473496 155.21335161 40.46992369 151.41776639 35.25 147.5 C33.35404606 146.06656576 31.45821429 144.63296991 29.5625 143.19921875 C28.62148438 142.48942871 27.68046875 141.77963867 26.7109375 141.04833984 C22.87828587 138.15245123 19.06311921 135.23403017 15.25 132.3125 C13.86984637 131.25643892 12.4896383 130.20044899 11.109375 129.14453125 C10.09520508 128.36843506 10.09520508 128.36843506 9.06054688 127.57666016 C5.54099335 124.8836179 2.02043774 122.1918862 -1.5 119.5 C-2.91667128 118.41667271 -4.33333796 117.33333938 -5.75 116.25 C-6.45125 115.71375 -7.1525 115.1775 -7.875 114.625 C-10 113 -12.125 111.375 -14.25 109.75 C-14.95157227 109.2135083 -15.65314453 108.6770166 -16.37597656 108.12426758 C-17.78940651 107.04339983 -19.20281804 105.96250799 -20.61621094 104.8815918 C-24.20724701 102.13533495 -27.7986248 99.38952697 -31.390625 96.64453125 C-39.93868669 90.11136301 -48.47728121 83.566199 -57 77 C-56.39379148 73.12750375 -54.56281157 70.81436592 -52.1875 67.75 C-51.36158254 66.67478372 -50.53608311 65.59924623 -49.7109375 64.5234375 C-49.26975586 63.95206055 -48.82857422 63.38068359 -48.37402344 62.79199219 C-46.487533 60.33164396 -44.63924554 57.84360315 -42.78833008 55.35644531 C-37.36265671 48.07195151 -31.81948819 40.88562405 -26.2253418 33.72998047 C-22.29825858 28.69709756 -18.43966737 23.61851471 -14.625 18.5 C-3.28185212 3.28185212 -3.28185212 3.28185212 0 0 Z " fill="#010101" transform="translate(415,143)"/>
<path d="M0 0 C3.82639823 0.8170013 5.76548993 2.24044551 8.75 4.8125 C13.25206312 8.59304042 17.84143378 12.18496045 22.5625 15.6875 C28.5168808 20.11463938 34.40326839 24.61912575 40.25 29.1875 C46.08831104 33.74714216 51.9583679 38.24936575 57.8984375 42.67578125 C63.89988628 47.17308859 69.84151994 51.74930844 75.79443359 56.31054688 C79.3611943 59.0426682 82.93069206 61.77120784 86.5 64.5 C90.70362192 67.71419471 94.90702588 70.92867257 99.109375 74.14453125 C102.63657239 76.84359314 106.16520726 79.54076867 109.69433594 82.23730469 C111.29186444 83.45862571 112.88883177 84.68068099 114.48535156 85.90332031 C126.122167 94.81447441 137.82875887 103.61672933 149.65283203 112.27783203 C152.03121911 114.02290613 154.40499134 115.77407617 156.77734375 117.52734375 C164.69402816 123.37694766 172.63316192 129.19089674 180.625 134.9375 C186.51345903 139.17186903 192.34606923 143.45371064 198 148 C196.43981366 152.79004579 193.73160237 156.26166097 190.6875 160.1875 C189.59494317 161.62001871 188.50384901 163.0536539 187.4140625 164.48828125 C186.84977539 165.23029785 186.28548828 165.97231445 185.70410156 166.73681641 C182.93726019 170.41140372 180.24783724 174.14063285 177.5625 177.875 C177.02326904 178.62418701 176.48403809 179.37337402 175.9284668 180.14526367 C174.83226446 181.66913311 173.73648038 183.19330351 172.64111328 184.71777344 C169.93360468 188.4829907 167.21635203 192.24116052 164.5 196 C163.41661912 197.49996566 162.3332858 198.99996567 161.25 200.5 C159.08333333 203.5 156.91666667 206.5 154.75 209.5 C154.21383057 210.24241943 153.67766113 210.98483887 153.12524414 211.74975586 C152.04121584 213.2506555 150.95706858 214.75146922 149.87280273 216.25219727 C147.17412345 219.98773967 144.47748688 223.72472254 141.78515625 227.46484375 C136.17096822 235.25915847 130.52114617 243.024536 124.8125 250.75 C119.99605784 257.26868079 115.23977065 263.8244828 110.54296875 270.4296875 C103.0657213 280.94225322 95.47881132 291.37468214 87.8125 301.75 C82.99714943 308.26724298 78.24135556 314.82113274 73.546875 321.42578125 C68.96009787 327.87525511 64.30666647 334.27707393 59.66894531 340.68994141 C58.03481701 342.95180829 56.4036287 345.21576308 54.7734375 347.48046875 C48.64502803 355.98992059 42.46380502 364.45739685 36.23291016 372.89208984 C30.6518492 380.45477577 25.14811811 388.07190975 19.65722656 395.70019531 C17.89671399 398.14333445 16.1324062 400.5836967 14.3671875 403.0234375 C13.77236572 403.84577881 13.17754395 404.66812012 12.56469727 405.51538086 C11.42229306 407.09456327 10.27956763 408.67351338 9.13647461 410.25219727 C8.6235083 410.96174561 8.11054199 411.67129395 7.58203125 412.40234375 C6.90491089 413.33808228 6.90491089 413.33808228 6.21411133 414.29272461 C5.11300446 415.84109387 4.05391339 417.41912991 3 419 C-2.19007156 418.56502257 -5.2449024 415.85778058 -9.1875 412.75 C-10.61992767 411.64822189 -12.05356633 410.54801678 -13.48828125 409.44921875 C-14.60130615 408.59336182 -14.60130615 408.59336182 -15.73681641 407.72021484 C-19.40175335 404.93454648 -23.13599732 402.2474981 -26.875 399.5625 C-27.62418701 399.02334961 -28.37337402 398.48419922 -29.14526367 397.92871094 C-30.66909447 396.83237355 -32.19326493 395.7365081 -33.71777344 394.64111328 C-37.48299056 391.93360478 -41.24119322 389.21639707 -45 386.5 C-49.53377678 383.22464608 -54.06827552 379.95030764 -58.60546875 376.6796875 C-68.10329277 369.83089587 -77.5692708 362.94090542 -87 356 C-86.37853303 352.41838773 -84.9277375 350.25729963 -82.75 347.375 C-82.02683594 346.40433594 -81.30367188 345.43367188 -80.55859375 344.43359375 C-80.15237793 343.8907373 -79.74616211 343.34788086 -79.32763672 342.78857422 C-76.78616172 339.3647335 -74.30440369 335.89748673 -71.8125 332.4375 C-70.6837519 330.87358376 -69.55484333 329.30978333 -68.42578125 327.74609375 C-67.5742749 326.56635986 -67.5742749 326.56635986 -66.70556641 325.36279297 C-63.42945615 320.82425947 -60.15209045 316.28663209 -56.87402344 311.74951172 C-54.17494938 308.01339091 -51.47789586 304.27584561 -48.78515625 300.53515625 C-42.65243321 292.02079319 -36.46767211 283.54783798 -30.23291016 275.10791016 C-24.63567826 267.5233116 -19.11591373 259.8841167 -13.60888672 252.23388672 C-10.36853805 247.73476831 -7.11972298 243.24175881 -3.87255859 238.74755859 C-1.17401978 235.012055 1.52257953 231.2751852 4.21484375 227.53515625 C9.82903178 219.74084153 15.47885383 211.975464 21.1875 204.25 C25.58267653 198.30146956 29.95221719 192.33843547 34.22094727 186.29833984 C36.60735802 182.92609832 39.03796314 179.59201157 41.50390625 176.27734375 C42.10388428 175.46467041 42.7038623 174.65199707 43.32202148 173.81469727 C44.50269879 172.21706581 45.69076084 170.62485929 46.88696289 169.03881836 C47.42184326 168.31186768 47.95672363 167.58491699 48.5078125 166.8359375 C48.98879395 166.19188965 49.46977539 165.5478418 49.96533203 164.88427734 C51.32087799 162.77391229 51.32087799 162.77391229 51 159 C48.81294319 157.05732436 46.69783118 155.4184068 44.3125 153.75 C42.84279674 152.68621159 41.37409839 151.62103386 39.90625 150.5546875 C39.11476563 149.98459961 38.32328125 149.41451172 37.5078125 148.82714844 C33.05436304 145.58244286 28.68806115 142.22356733 24.3125 138.875 C22.51172806 137.50128987 20.71094703 136.12759167 18.91015625 134.75390625 C14.00965917 131.00975862 9.1190635 127.25303469 4.234375 123.48828125 C0.3308215 120.4818559 -3.58503244 117.49153647 -7.5 114.5 C-13.54697179 109.87903651 -19.58441664 105.24613323 -25.61328125 100.6015625 C-28.1472441 98.65212582 -30.68770388 96.71137824 -33.23046875 94.7734375 C-40.89107766 88.93353783 -48.52598207 83.07837822 -56 77 C-55.49514108 72.31935885 -53.60697565 69.81472732 -50.6875 66.1875 C-49.77612871 65.04002648 -48.86602974 63.89154159 -47.95703125 62.7421875 C-47.47572754 62.13729492 -46.99442383 61.53240234 -46.49853516 60.90917969 C-43.89414867 57.59111154 -41.39117856 54.19762072 -38.875 50.8125 C-35.64677472 46.48737892 -32.39778963 42.19436686 -29 38 C-25.13814493 33.23040992 -21.46921638 28.32797334 -17.79980469 23.41015625 C-11.93432578 15.55493496 -5.96790219 7.77752415 0 0 Z " fill="#014AAD" transform="translate(207,173)"/>
<path d="M0 0 C0.81210937 -0.00773437 1.62421875 -0.01546875 2.4609375 -0.0234375 C16.83664166 0.02263847 29.27385722 6.46982773 39.625 16.25 C43.89936123 20.88794798 46.33859079 25.0752358 47.625 31.25 C48.285 31.25 48.945 31.25 49.625 31.25 C49.75777344 31.88808594 49.89054687 32.52617188 50.02734375 33.18359375 C50.20394531 34.00988281 50.38054687 34.83617187 50.5625 35.6875 C50.73652344 36.51121094 50.91054688 37.33492187 51.08984375 38.18359375 C51.43252994 40.22661204 51.43252994 40.22661204 52.625 41.25 C52.71200342 42.88472882 52.73201063 44.52314055 52.72265625 46.16015625 C52.71782227 47.64418945 52.71782227 47.64418945 52.71289062 49.15820312 C52.70032227 50.71958008 52.70032227 50.71958008 52.6875 52.3125 C52.68298828 53.35728516 52.67847656 54.40207031 52.67382812 55.47851562 C52.66199913 58.0690666 52.64551689 60.65950559 52.625 63.25 C51.965 63.25 51.305 63.25 50.625 63.25 C50.398125 64.549375 50.17125 65.84875 49.9375 67.1875 C47.23071907 78.99053791 38.85699309 89.27488971 28.6875 95.6875 C27.01631036 96.5731535 25.3286628 97.42854398 23.625 98.25 C22.86574219 98.66121094 22.10648437 99.07242188 21.32421875 99.49609375 C14.88484361 102.46416299 8.53676213 102.63288648 1.5625 102.6875 C0.64049805 102.69765137 -0.28150391 102.70780273 -1.23144531 102.71826172 C-15.43604832 102.53861676 -25.84470543 96.8773132 -36.2109375 87.53125 C-38.38528352 85.23915961 -39.79396987 82.97043173 -41.375 80.25 C-42.11169922 79.58484375 -42.11169922 79.58484375 -42.86328125 78.90625 C-49.82334953 71.28074883 -51.19646247 57.91658154 -51.01879883 48.08056641 C-50.44180217 37.07795423 -45.992658 27.91557773 -39.375 19.25 C-38.76140625 18.42628906 -38.1478125 17.60257813 -37.515625 16.75390625 C-31.73111191 9.98771484 -23.68026126 5.27281581 -15.375 2.25 C-14.49199219 1.89164062 -13.60898437 1.53328125 -12.69921875 1.1640625 C-8.39766997 -0.01873705 -4.43827252 -0.0418705 0 0 Z " fill="#020202" transform="translate(327.375,90.75)"/>
<path d="M0 0 C0.79680176 0.00894287 1.59360352 0.01788574 2.41455078 0.02709961 C17.4025956 0.32209172 27.91613426 5.49007232 38.92578125 15.84375 C50.30820811 27.95355129 52.73519908 40.01244773 52.3671875 56.15625 C52.0013706 65.96556251 50.19500405 72.4272789 44.1875 80.25 C43.72214844 80.93964844 43.25679688 81.62929687 42.77734375 82.33984375 C35.87764651 92.35305339 25.18777926 99.07511746 13.39819336 101.85522461 C-0.12946616 104.27093145 -14.77501481 102.82100289 -26.5625 95.5625 C-32.9867974 90.89243879 -39.07065832 85.32184544 -42.8125 78.25 C-42.8125 77.59 -42.8125 76.93 -42.8125 76.25 C-43.4725 76.25 -44.1325 76.25 -44.8125 76.25 C-45.46245297 74.83521865 -46.10728722 73.41808513 -46.75 72 C-47.10964844 71.21109375 -47.46929687 70.4221875 -47.83984375 69.609375 C-52.09240851 59.2939167 -51.86049798 42.69333381 -47.8125 32.4375 C-46.421875 29.77734375 -46.421875 29.77734375 -44.8125 27.25 C-44.21953125 26.30253906 -43.6265625 25.35507813 -43.015625 24.37890625 C-32.94640968 9.53688287 -18.29085668 -0.23052446 0 0 Z " fill="#024BAD" transform="translate(117.8125,120.75)"/>
<path d="M0 0 C0.66 0.33 1.32 0.66 2 1 C-2.29 5.29 -6.58 9.58 -11 14 C-11.66 13.67 -12.32 13.34 -13 13 C-11.58791833 11.39179588 -10.17013964 9.78859292 -8.75 8.1875 C-7.96109375 7.29417969 -7.1721875 6.40085938 -6.359375 5.48046875 C-4.34120555 3.35871775 -2.40083295 1.65745577 0 0 Z " fill="#2F6BBB" transform="translate(90,129)"/>
</svg>
